<svg width="249" height="134" viewBox="0 0 249 134" fill="none" xmlns="http://www.w3.org/2000/svg">
<path d="M0.41 0.899997H10.553V20.682H29.768V0.899997H39.911V45H29.768V25.281H10.553V45H0.41V0.899997ZM54.5314 45.756C49.8064 45.756 44.9554 43.551 44.9554 37.188C44.9554 26.415 60.5794 27.045 64.3594 27.045C64.3594 27.045 69.0214 16.902 64.9264 17.028C58.7524 17.28 53.2084 25.218 53.2084 25.218L46.6564 18.981C46.6564 18.981 54.0904 14.067 65.1154 14.067C71.1004 14.067 75.7624 16.65 75.6364 28.935V45H67.0684L69.8404 33.912H68.7064C66.8164 39.015 61.9654 45.756 54.5314 45.756ZM49.5544 41.346C50.4364 43.299 53.9644 41.598 56.5474 38.889C60.2014 34.92 63.7294 28.683 63.7294 28.683C54.9094 31.455 47.7904 37.755 49.5544 41.346ZM107.988 19.611C105.657 17.973 100.302 19.926 96.7114 26.1C93.2464 31.959 93.1204 39.393 95.6404 41.031C97.7194 42.291 102.948 40.149 106.539 33.975C110.004 28.116 110.319 21.312 107.988 19.611ZM82.2214 61.569V14.886H92.1754L89.3404 22.446H90.7264C92.7424 17.343 96.8374 14.13 102.129 14.13C108.933 14.13 114.981 20.619 114.981 29.943C114.981 39.267 108.933 45.819 102.129 45.819C96.0184 45.819 92.1754 42.606 90.4114 37.503H89.3404L92.1754 61.569H82.2214ZM145.825 19.611C143.494 17.973 138.139 19.926 134.548 26.1C131.083 31.959 130.957 39.393 133.477 41.031C135.556 42.291 140.785 40.149 144.376 33.975C147.841 28.116 148.156 21.312 145.825 19.611ZM120.058 61.569V14.886H130.012L127.177 22.446H128.563C130.579 17.343 134.674 14.13 139.966 14.13C146.77 14.13 152.818 20.619 152.818 29.943C152.818 39.267 146.77 45.819 139.966 45.819C133.855 45.819 130.012 42.606 128.248 37.503H127.177L130.012 61.569H120.058ZM154.398 45.504C154.398 45.504 164.919 52.308 168.636 46.386L153.453 14.886H164.163L174.054 34.92C176.196 28.305 177.582 19.611 177.141 14.886H188.796L172.101 49.347C168.006 57.159 154.398 56.403 154.398 56.403V45.504ZM20.318 121.756C14.081 121.756 10.364 118.543 8.6 113.44H7.529L10.364 121H0.41V74.317H10.364L7.529 98.383H8.6C10.364 93.28 14.207 90.067 20.318 90.067C27.059 90.067 33.107 96.619 33.107 105.943C33.107 115.267 27.059 121.756 20.318 121.756ZM13.514 116.59C15.782 118.228 21.452 115.96 25.043 109.786C28.508 103.927 28.382 97.06 25.736 95.359C23.657 94.099 18.806 95.737 15.215 101.911C11.75 107.707 11.183 114.763 13.514 116.59ZM38.1854 90.886H48.1394V121H38.1854V90.886ZM36.9254 81.814C36.9254 78.727 39.5084 76.144 43.1624 76.144C46.8164 76.144 49.3994 78.727 49.3994 81.814C49.3994 84.901 46.8164 87.484 43.1624 87.484C39.5084 87.484 36.9254 84.901 36.9254 81.814ZM56.32 90.886H66.274V97.438H67.156C68.857 93.784 72.196 90.067 78.748 90.067L77.803 101.218C69.046 97.564 66.274 104.683 66.274 104.683V121H56.32V90.886ZM96.3728 121H86.4188V95.485H81.3158V90.886H86.4188V80.428L96.3728 71.986V90.886H103.429V95.485H96.3728V121ZM107.707 121V74.317H117.787V101.911H118.921C120.307 94.666 124.087 90.067 129.253 90.067C134.23 90.067 138.01 93.532 138.01 107.014V121H125.599C125.599 121 138.325 99.139 132.214 95.422C129.442 93.784 125.977 96.745 122.323 103.423C118.606 110.227 115.834 121 115.834 121H107.707ZM149.709 116.275C152.103 117.913 157.458 115.96 160.986 109.786C164.451 103.927 164.577 96.493 162.057 94.855C159.978 93.595 154.749 95.737 151.158 101.911C147.756 107.77 147.378 114.574 149.709 116.275ZM142.716 105.943C142.716 96.619 148.764 90.067 155.568 90.067C161.805 90.067 165.585 93.28 167.286 98.383H168.357L165.585 74.317H175.476V121H165.585L168.357 113.44H167.034C165.018 118.543 160.797 121.756 155.568 121.756C148.764 121.756 142.716 115.267 142.716 105.943ZM190.129 121.756C185.404 121.756 180.553 119.551 180.553 113.188C180.553 102.415 196.177 103.045 199.957 103.045C199.957 103.045 204.619 92.902 200.524 93.028C194.35 93.28 188.806 101.218 188.806 101.218L182.254 94.981C182.254 94.981 189.688 90.067 200.713 90.067C206.698 90.067 211.36 92.65 211.234 104.935V121H202.666L205.438 109.912H204.304C202.414 115.015 197.563 121.756 190.129 121.756ZM185.152 117.346C186.034 119.299 189.562 117.598 192.145 114.889C195.799 110.92 199.327 104.683 199.327 104.683C190.507 107.455 183.388 113.755 185.152 117.346ZM214.384 121.504C214.384 121.504 224.905 128.308 228.622 122.386L213.439 90.886H224.149L234.04 110.92C236.182 104.305 237.568 95.611 237.127 90.886H248.782L232.087 125.347C227.992 133.159 214.384 132.403 214.384 132.403V121.504Z" fill="#FFAB08"/>
</svg>
